<?xml version="1.0" encoding="UTF-8" standalone="no"?>
<svg
   xmlns:dc="http://purl.org/dc/elements/1.1/"
   xmlns:cc="http://creativecommons.org/ns#"
   xmlns:rdf="http://www.w3.org/1999/02/22-rdf-syntax-ns#"
   xmlns:svg="http://www.w3.org/2000/svg"
   xmlns="http://www.w3.org/2000/svg"
   viewBox="0 0 559.37012 396.8504"
   height="396.8504"
   width="559.37012"
   xml:space="preserve"
   id="svg2"
   version="1.1"><metadata
     id="metadata8"><rdf:RDF><cc:Work
         rdf:about=""><dc:format>image/svg+xml</dc:format><dc:type
           rdf:resource="http://purl.org/dc/dcmitype/StillImage" /></cc:Work></rdf:RDF></metadata><defs
     id="defs6" /><g
     transform="matrix(1.3333333,0,0,-1.3333333,0,396.8504)"
     id="g10"><g
       id="g12"><path
         id="path14"
         style="fill:#396b55;fill-opacity:1;fill-rule:nonzero;stroke:none"
         d="m 315.0799,138.7692 c 3.229,-2.7079 3.0209,-5.1556 -0.6244,-7.3428 -3.5416,-1.7706 -7.9679,-2.6558 -13.2798,-2.6558 -19.7305,2.6305 -14.4524,22.9615 -22.8098,33.8238 -1.5625,2.031 -3.4892,3.0986 -5.7804,3.2026 h -0.6248 c -3.0203,0 -5.3643,-1.328 -7.0305,-3.9838 -1.6667,-2.6561 -2.2918,-6.1192 -1.8748,-10.3893 0.7892,-7.4985 7.2133,-12.2468 14.6208,-10.9207 1.2688,0.227 2.3488,-0.1877 2.9631,-0.9176 0.6712,-0.7974 0.7872,-1.9718 -0.0111,-3.0977 -1.2367,-1.743 -3.2411,-3.3525 -6.0117,-4.8271 -8.8055,-4.6862 -21.9299,-2.7553 -29.9183,2.812 -10.8816,7.5843 -11.1662,24.2855 -0.1559,32.1054 6.2025,4.4056 13.7407,6.5617 21.3254,6.5617 6.353,0 11.3008,-1.1977 14.8419,-3.5932 -0.1041,0.4164 -0.2347,1.1715 -0.3906,2.2654 -0.1562,1.0933 -0.2863,1.9004 -0.3907,2.4214 -1.4584,9.9986 -3.1767,16.5081 -5.1556,19.5287 -1.9792,2.9163 -4.3741,4.3747 -7.1864,4.3747 -5.1038,0 -6.77,-2.2915 -4.9997,-6.8746 1.4581,-2.9163 2.1869,-5.2072 2.1869,-6.874 0,-2.1872 -1.1452,-4.0099 -3.4367,-5.468 -2.2913,-1.4579 -4.9474,-2.1872 -7.9674,-2.1872 -3.0209,0 -5.6766,0.9635 -7.9679,2.8902 -2.2912,1.927 -3.437,4.4005 -3.437,7.4211 0,4.8951 2.5512,8.7485 7.655,11.5611 5.1037,2.8119 11.3527,4.2182 18.748,4.2182 1.9783,0 3.437,-0.0524 4.3742,-0.1565 18.0187,-1.0414 28.6421,-9.4779 31.871,-25.3091 0,-0.625 1.51,-9.1134 4.5306,-25.4659 1.3541,-6.1449 3.3333,-10.5193 5.9366,-13.123" /><path
         id="path16"
         style="fill:#396b55;fill-opacity:1;fill-rule:nonzero;stroke:none"
         d="m 190.5698,132.8794 c 0.108,-0.5785 0.1148,-1.1526 0,-1.6625 z" /><path
         id="path18"
         style="fill:#396b55;fill-opacity:1;fill-rule:evenodd;stroke:none"
         d="m 323.4577,204.0313 c -5.8807,2.3156 -10.5029,7.1328 -12.5546,13.1408 -2.0526,-6.008 -6.6739,-10.8255 -12.5544,-13.1411 5.8805,-2.3153 10.5018,-7.1328 12.5544,-13.1411 2.0517,6.0083 6.6736,10.826 12.5546,13.1414" /><path
         id="path20"
         style="fill:#396b55;fill-opacity:1;fill-rule:nonzero;stroke:none"
         d="m 79.808,91.7617 c 0.8028,2.1289 1.3833,3.3117 2.0985,3.9912 l -3.8146,1.4389 c 0.1236,-0.8875 -0.1408,-1.9469 -0.8728,-3.8872 l -1.313,-3.4795 -8.4401,3.1842 1.3127,3.4792 c 0.7316,1.9398 1.2328,2.9106 1.912,3.4951 l -3.8101,1.4375 c 0.1117,-0.9916 -0.2335,-2.2632 -1.0363,-4.3923 L 62.1658,87.2759 C 61.437,85.3455 60.9361,84.3746 60.2357,83.8032 l 3.8097,-1.4369 c -0.1258,0.8833 0.1389,1.9426 0.8674,3.8735 l 1.6271,4.3144 8.4407,-3.1836 -1.6273,-4.3146 c -0.728,-1.9307 -1.2294,-2.9013 -1.9063,-3.4818 l 3.8143,-1.4386 c -0.0902,0.9774 0.2554,2.2493 1.0547,4.3687 z m 18.5375,-1.1653 -11.5611,3.4628 c 0.1834,-0.9714 -0.0689,-2.2547 -0.722,-4.4342 l -2.846,-9.502 c -0.6531,-2.1796 -1.1475,-3.3908 -1.8343,-4.1012 l 11.5608,-3.4628 0.9153,3.0546 c -0.8722,-0.1862 -1.9476,0.0043 -3.9291,0.5978 l -4.4226,1.3244 1.6427,5.4856 4.6888,-1.404 c 1.0386,-0.3113 1.7719,-0.5888 2.3184,-0.9629 l 0.8482,2.8321 c -0.6546,0.0119 -1.4259,0.1632 -2.465,0.4748 l -4.6883,1.404 1.5463,5.1618 4.4224,-1.3243 c 1.9817,-0.5936 2.9846,-1.0259 3.6107,-1.6608 z m 7.914,-18.7044 -3.0988,0.8155 2.9475,11.1972 c 0.5794,2.2008 1.0352,3.4373 1.6985,4.1754 l -3.9614,1.0429 c 0.214,-0.9695 0.003,-2.27 -0.5766,-4.4711 l -2.5175,-9.5627 c -0.5777,-2.1957 -1.0335,-3.4316 -1.6973,-4.1706 l 10.305,-2.7119 0.847,3.2201 c -0.8651,-0.2154 -1.946,-0.0615 -3.9464,0.4652 z m 23.3119,-7.9999 c -0.368,0.3356 -0.4612,0.8708 -0.5562,1.7623 l -1.9451,18.0105 -3.5535,0.7508 -9.0335,-15.6656 c -0.4232,-0.7818 -0.7741,-1.2235 -1.2515,-1.4063 l 4.1715,-0.881 c -0.2908,0.5769 -0.1511,1.1146 0.5984,2.4673 l 0.877,1.5885 6.8125,-1.4391 0.1409,-1.6495 c 0.1619,-1.6736 0.0918,-2.2519 -0.432,-2.6566 z m -9.4414,8.8888 4.4566,8.0363 0.0494,-0.0105 0.8254,-9.1517 z m 23.0154,8.0229 -6.1974,0.9241 c 0.3194,-0.9351 0.2523,-2.241 -0.0837,-4.4915 l -1.4629,-9.811 c -0.3359,-2.2501 -0.6525,-3.5192 -1.2311,-4.3202 l 6.1977,-0.9244 c 6.0179,-0.8977 9.6774,2.0608 10.559,7.969 0.9077,6.0832 -1.7634,9.7563 -7.7816,10.654 z m -2.3888,-16.0185 -2.7201,0.4059 2.0009,13.4135 2.7196,-0.4059 c 3.9719,-0.5922 5.8088,-3.1924 5.1514,-7.5985 -0.6647,-4.4561 -3.1799,-6.4072 -7.1518,-5.815 z m 23.5845,-6.0387 c 5.6795,-0.5462 9.8402,3.0833 10.3961,8.8634 0.5508,5.7257 -2.8695,10.0587 -8.5246,10.6024 -5.66,0.5443 -9.8178,-3.06 -10.3683,-8.7854 -0.5533,-5.7552 2.8366,-10.1361 8.4968,-10.6804 z m 0.2605,2.7119 c -3.852,0.3705 -6.0947,3.399 -5.684,7.6728 0.4079,4.2438 3.1822,6.7397 7.0347,6.3692 3.8467,-0.3699 6.1195,-3.3514 5.7116,-7.5949 -0.4113,-4.2735 -3.1901,-6.8196 -7.0623,-6.4471 z m 18.7677,-4.1879 c 3.3837,-0.2163 5.9417,1.8397 6.1319,4.8101 0.1768,2.7695 -1.5803,4.1454 -3.4288,5.7552 -1.6331,1.419 -3.1258,2.2731 -3.0254,3.8336 0.1029,1.6112 1.544,2.3281 2.9588,2.2374 1.3646,-0.0871 2.2921,-0.6013 2.8088,-1.2158 l 0.1511,-0.0097 0.6968,2.9886 c -0.7782,0.4794 -1.9639,0.9094 -3.4541,1.0049 -3.5353,0.2259 -5.9944,-1.8669 -6.1812,-4.7869 -0.182,-2.8448 1.7076,-4.1289 3.5513,-5.7379 1.5122,-1.3351 2.9792,-2.2637 2.8814,-3.799 -0.0981,-1.5358 -1.2991,-2.4445 -3.1218,-2.328 -1.5355,0.0983 -2.8984,0.9184 -3.5042,2.1197 l -0.1508,0.0096 -0.9176,-3.2728 c 0.8615,-0.7628 2.5092,-1.4749 4.6038,-1.609 z m 33.5024,18.5502 -6.2649,-0.1185 c 0.4703,-0.8688 0.6211,-2.1679 0.6639,-4.4427 l 0.1876,-9.9176 c 0.0426,-2.2751 -0.0592,-3.579 -0.4963,-4.4654 l 6.2651,0.1185 c 6.0837,0.1151 9.2007,3.6405 9.0885,9.6131 -0.1163,6.1492 -3.3605,9.3274 -9.4439,9.2126 z m 0.3055,-16.1926 -2.7496,-0.0516 -0.2557,13.5592 2.7496,0.0516 c 4.015,0.076 6.2578,-2.1826 6.342,-6.6367 0.085,-4.5046 -2.0707,-6.8465 -6.0863,-6.9225 z m 25.7701,17.428 -12.0388,-0.8448 c 0.5145,-0.8438 0.7317,-2.1336 0.8907,-4.4036 l 0.6948,-9.8949 c 0.159,-2.2694 0.1241,-3.5773 -0.2671,-4.4847 l 12.0382,0.845 -0.2231,3.1808 c -0.7497,-0.4825 -1.8235,-0.684 -3.8869,-0.8289 l -4.6054,-0.3231 -0.4008,5.7121 4.8824,0.3427 c 1.082,0.076 1.866,0.0754 2.5095,-0.0819 l -0.2075,2.9494 c -0.6165,-0.2202 -1.3913,-0.3509 -2.4735,-0.4266 l -4.8821,-0.3424 -0.3773,5.375 4.6054,0.3235 c 2.0636,0.1445 3.1547,0.0946 3.9646,-0.2784 z m 38.0919,-14.4533 c -0.4612,0.1862 -0.7355,0.6556 -1.1358,1.4575 l -8.1043,16.2015 -3.5929,-0.5361 -3.0021,-17.8322 c -0.1233,-0.8804 -0.2991,-1.4167 -0.6821,-1.7543 l 4.2169,0.629 c -0.4737,0.4394 -0.5307,0.9918 -0.2997,2.5208 l 0.2679,1.7949 6.8862,1.0267 0.7076,-1.4958 c 0.7355,-1.5123 0.8713,-2.0789 0.5212,-2.641 z m -11.9486,5.038 1.3743,9.0856 0.0499,0.0074 3.9654,-8.2894 z m 27.5738,16.8375 -4.0147,-0.7084 c 0.5581,-0.6953 0.8711,-1.7419 1.2302,-3.7791 l 1.4148,-8.0192 c 0.4691,-2.6584 -0.5142,-4.5222 -3.4302,-5.0366 -2.9169,-0.5145 -4.4779,0.9005 -4.9471,3.5586 l -1.415,8.0195 c -0.3592,2.0372 -0.4232,3.1274 -0.1361,3.9719 l -4.015,-0.7081 c 0.6007,-0.7906 0.9281,-2.0651 1.3221,-4.301 l 1.4275,-8.0935 c 0.631,-3.5779 3.6539,-5.9596 8.2401,-5.1506 4.5861,0.809 6.6112,4.0814 5.9802,7.6587 l -1.4275,8.0937 c -0.3946,2.2363 -0.5233,3.5453 -0.2293,4.4941 z m 3.7599,1.0318 0.752,-3.13 c 0.6602,0.5998 1.6855,0.9757 3.6966,1.459 l 1.0545,0.2534 2.7326,-11.3715 c 0.5301,-2.2076 0.7146,-3.5124 0.5043,-4.4759 l 3.9643,0.9522 c -0.6489,0.7577 -1.0534,2.0095 -1.5837,4.2168 l -2.7326,11.3718 1.0301,0.2474 c 2.0114,0.4833 3.096,0.6137 3.9563,0.3796 l -0.7518,3.1297 z m 29.8278,-11.8599 c 5.4629,1.6484 7.9367,6.5846 6.2592,12.1439 -1.6614,5.5063 -6.4693,8.2191 -11.9081,6.5781 -5.4439,-1.6427 -7.9248,-6.5545 -6.2634,-12.0611 1.671,-5.5355 6.4686,-8.3035 11.9123,-6.6609 z m -0.7869,2.6082 c -3.7049,-1.118 -6.9284,0.8342 -8.1689,4.9445 -1.2316,4.0816 0.3889,7.4429 4.0938,8.5609 3.7001,1.116 6.9338,-0.7801 8.1652,-4.862 1.2402,-4.1102 -0.3662,-7.5195 -4.0901,-8.6434 z m 15.1228,2.3865 3.8172,1.4179 c -0.6979,0.5748 -1.1705,1.5565 -1.889,3.4911 l -1.0891,2.9325 4.4555,1.6545 3.5705,-3.5124 c 1.2302,-1.2118 1.4913,-1.6256 1.3748,-2.1804 l 3.9915,1.4823 c -0.5667,0.0048 -1.1466,0.4081 -2.4364,1.7056 l -4.0728,4.0252 c 1.7305,1.5579 2.3638,3.8378 1.4485,6.3019 -1.3105,3.5286 -4.5627,4.474 -8.28,3.0932 l -7.4444,-2.7652 c 0.7331,-0.6695 1.3082,-1.8555 2.1005,-3.9883 l 3.4447,-9.2747 c 0.7886,-2.1237 1.1267,-3.3973 1.0085,-4.3832 z m -0.0657,10.277 -2.2782,6.1342 3.6705,1.3631 c 2.4452,0.9083 4.2948,0.4921 5.0522,-1.5465 0.792,-2.1331 -0.3526,-3.6879 -2.7739,-4.5876 z" /><path
         id="path22"
         style="fill:#396b55;fill-opacity:1;fill-rule:evenodd;stroke:none"
         d="m 131.6234,201.5396 v -36.8597 l 0.0156,-16.24 c 0,-14.6973 23.4158,-14.0613 23.4158,0.7968 v 65.7729 c 0,2.7082 -0.5462,4.7911 -1.6401,6.249 -1.0939,1.4584 -2.5775,2.6039 -4.4527,3.4372 -1.8745,0.8334 -2.9681,1.406 -3.2805,1.7184 -0.9377,0.625 -1.4323,1.5885 -1.4848,2.8905 -0.0518,1.3019 0.4952,2.2654 1.6407,2.8905 3.0206,1.8742 7.3432,3.6972 12.9674,5.4677 5.6242,1.7708 10.1551,2.6561 13.5921,2.6561 3.0203,0 5.156,-1.1719 6.4052,-3.5155 1.2501,-2.3434 1.8748,-6.6918 1.8748,-13.0448 v -49.8373 l 19.2164,13.1227 c 2.4996,1.5627 3.7754,2.8905 3.8276,3.9838 0.36,7.5441 -16.5969,9.6086 20.0758,9.6086 0.6245,0 1.171,-0.2347 1.6404,-0.7033 0.4689,-0.4685 0.703,-1.0153 0.703,-1.6404 v -1.2498 c 0,-0.8334 -0.1301,-1.4839 -0.3909,-1.9528 -0.2602,-0.4685 -0.8073,-0.9895 -1.6404,-1.5624 -0.8328,-0.5726 -1.77,-1.1194 -2.8117,-1.6407 -1.042,-0.5205 -2.6821,-1.4312 -4.9212,-2.7337 -2.2397,-1.302 -4.557,-2.7341 -6.952,-4.2962 -0.3129,-0.2084 -2.0319,-1.302 -5.1559,-3.2806 -3.1252,-1.9788 -11.6632,-6.859 -13.6423,-8.1088 0.4654,-0.4847 1.3048,-0.5624 2.4023,-0.4184 5.6815,0.7456 18.2889,7.4356 21.818,-5.6018 1.912,-7.0645 7.4135,-30.935 19.1052,-25.0852 0.8337,0 1.2501,-0.4685 1.2501,-1.406 -0.2083,-2.7079 -2.2133,-5.4161 -6.0151,-8.1243 -3.8013,-2.7074 -8.2539,-4.0615 -13.3571,-4.0615 -7.708,0 -14.1132,4.8427 -19.2164,14.5292 l -12.655,24.9971 -3.2808,-2.0313 v -17.3418 c 0,-1.224 0.3685,-2.5523 1.1058,-3.9844 0.7968,-1.3714 1.9811,-2.8551 3.5535,-4.4515 3.3852,-3.4373 5.1293,-5.3122 5.2336,-5.6245 0.4561,-1.2169 0.525,-3.0408 -0.2055,-4.2424 -0.3563,-0.7307 -1.0576,-1.2257 -2.188,-1.2257 -29.8982,0 -59.7955,0 -89.6939,0 -2.9659,0 -3.2324,3.5147 -2.4999,5.4681 0.1041,0.3123 1.8482,2.1872 5.2339,5.6245 2.4228,2.4607 3.9251,4.6539 4.5071,6.5803 0.0278,10.0976 0.1012,20.1943 0.1012,30.2899 0,2.8123 -0.5202,4.947 -1.5622,6.4055 -1.0409,1.4581 -2.499,2.5778 -4.3738,3.359 -1.8752,0.7807 -2.9688,1.3278 -3.2811,1.6404 -0.9372,0.7285 -1.4318,1.7705 -1.484,3.1241 -0.0521,1.3547 0.4941,2.3958 1.6404,3.1249 10.6438,-1.1789 22.6052,0.9941 30.5626,8.3985 0.7611,0.7084 1.8088,0.8875 2.7615,0.4725 0.9533,-0.4153 1.5353,-1.3039 1.5353,-2.3434 z m -12.9263,32.0275 c 3.9699,0 7.3318,-1.2497 10.0834,-3.7493 2.7522,-2.4999 4.1284,-5.5202 4.1284,-9.0613 0,-3.5413 -1.3986,-6.5882 -4.1961,-9.1397 -2.7967,-2.5515 -6.1356,-3.8276 -10.0157,-3.8276 -3.8801,0 -7.2187,1.2761 -10.0162,3.8276 -2.7967,2.5515 -4.1953,5.5984 -4.1953,9.1397 0,3.5411 1.3986,6.5617 4.1953,9.0613 2.7975,2.4998 6.1361,3.7493 10.0162,3.7493" /></g></g></svg>